<svg width="73" height="73" viewBox="0 0 73 73" fill="none" xmlns="http://www.w3.org/2000/svg">
<path d="M36.4894 73C56.5709 73 72.8492 56.6837 72.8492 36.5552V11.0439C72.8492 8.14417 71.7 5.36321 69.6543 3.3128C67.6087 1.26238 64.8342 0.110474 61.9412 0.110474L38.3074 0.110474V16.0988C38.3074 19.7469 38.5292 23.5262 40.4381 26.6313C41.8046 28.8567 43.6327 30.7613 45.7984 32.2161C47.964 33.6709 50.4165 34.6418 52.9895 35.0628L53.6857 35.1758C53.9728 35.2741 54.222 35.46 54.3984 35.7073C54.5749 35.9547 54.6697 36.2512 54.6697 36.5552C54.6697 36.8593 54.5749 37.1558 54.3984 37.4031C54.222 37.6505 53.9728 37.8363 53.6857 37.9347L52.9895 38.0476C49.2302 38.6632 45.7587 40.4467 43.0653 43.1465C40.3718 45.8462 38.5924 49.3258 37.9783 53.0939L37.8656 53.7918C37.7675 54.0795 37.5821 54.3293 37.3353 54.5061C37.0885 54.683 36.7927 54.7781 36.4894 54.7781C36.186 54.7781 35.8902 54.683 35.6435 54.5061C35.3967 54.3293 35.2113 54.0795 35.1132 53.7918L35.0004 53.0939C34.5802 50.5149 33.6116 48.0568 32.1602 45.8861C30.7088 43.7154 28.8087 41.883 26.5886 40.5131C23.4908 38.5998 19.7202 38.3775 16.0806 38.3775H0.173218C1.12403 57.6586 17.0187 73 36.4894 73Z" fill="#91E8B5"/>
<path d="M0 11.4063C0 5.10679 5.10679 0 11.4063 0H32.04V21.0735C32.04 27.3731 26.9332 32.4798 20.6337 32.4798H0V11.4063Z" fill="#91E8B5"/>
</svg>
