<svg width="26" height="26" viewBox="0 0 26 26" fill="none" xmlns="http://www.w3.org/2000/svg">
<path d="M8.55803 0.341646C7.34433 0.392427 5.63296 0.615871 4.74427 0.839314C2.94657 1.29636 1.27583 2.88077 0.641052 4.73433C0.397296 5.44528 0.18401 7.09571 0.0468973 9.27427C-0.0800588 11.4071 0.062132 15.5154 0.336357 17.3538C0.671521 19.639 2.02741 22.0257 3.59659 23.0972C5.45522 24.3668 7.842 25.3266 9.86314 25.6262C10.3049 25.6872 10.4827 25.6922 10.7772 25.6516C11.5288 25.5348 12.2398 25.0473 12.7425 24.3008C12.9812 23.9453 13.2757 23.2801 13.3417 22.95C13.3773 22.7621 13.4382 22.7316 13.941 22.6504C14.7738 22.5234 15.4746 22.2441 16.216 21.7515C17.384 20.9796 18.3997 19.6237 18.7399 18.3796C18.9481 17.6026 19.202 15.4291 19.1309 15.033C19.0852 14.8045 18.8465 14.515 18.618 14.4033C18.42 14.3119 18.0036 14.2967 17.7903 14.3779C17.6176 14.4439 17.384 14.6572 17.2875 14.84C17.252 14.9162 17.1809 15.3123 17.1403 15.7287C17.0336 16.7698 16.927 17.5112 16.8305 17.8311C16.4344 19.1565 15.1039 20.4109 13.8445 20.6495L13.6464 20.6851L13.6769 20.1316C13.8445 17.3284 13.8292 14.7689 13.6363 12.1333C13.4535 9.70592 13.23 8.73598 12.4886 7.25821C11.9605 6.19686 11.0514 5.05425 10.3354 4.54643C9.51782 3.96243 8.15685 3.23624 7.06503 2.79951C6.57752 2.60654 6.46072 2.54053 6.5572 2.52021C6.86698 2.4542 7.62871 2.3831 8.56311 2.32724C10.696 2.21044 13.6261 2.50498 14.5504 2.93663C15.7387 3.49523 16.6578 4.64799 16.9117 5.89724C16.9625 6.16131 17.0438 6.74023 17.0895 7.18711C17.191 8.23323 17.2418 8.46175 17.4043 8.67504C17.6532 9.00513 18.1711 9.13208 18.5723 8.9645C18.8212 8.86293 18.9329 8.75629 19.0548 8.50746C19.1512 8.32972 19.1563 8.24339 19.1309 7.74572C19.0903 6.98906 18.9075 5.61286 18.7856 5.14058C18.3336 3.35812 16.8406 1.6823 15.1191 1.01197C13.9105 0.544775 10.96 0.240082 8.55803 0.341646Z" fill="#E87975"/>
<path d="M21.4568 7.23281C21.4314 7.24804 21.3451 7.26836 21.2689 7.28359C21.081 7.32422 20.7713 7.60352 20.69 7.80665C20.5935 8.03009 20.5986 8.45159 20.7002 8.64964C20.7459 8.74105 21.1978 9.22856 21.7006 9.73638L22.6248 10.6657H19.3646C17.2063 10.6657 16.018 10.686 15.8454 10.7216C15.0278 10.8942 14.8043 11.9657 15.4746 12.4786L15.6575 12.6208L19.1564 12.6462L22.6502 12.6716L21.7057 13.6111C21.1877 14.1291 20.7306 14.6217 20.69 14.7131C20.6037 14.906 20.5986 15.3224 20.6748 15.5256C20.7459 15.7186 20.9642 15.9471 21.1623 16.0283C21.3553 16.1147 21.7717 16.1197 21.9748 16.0486C22.1373 15.9877 25.819 12.3415 25.9307 12.1282C26.0272 11.9403 26.0222 11.4122 25.9206 11.2091C25.8089 10.9907 22.376 7.54258 22.117 7.39023C21.924 7.27344 21.5685 7.19218 21.4568 7.23281Z" fill="#E87975"/>
</svg>
